<svg width="14" height="14" viewBox="0 0 14 14" fill="none" xmlns="http://www.w3.org/2000/svg">
<path fill-rule="evenodd" clip-rule="evenodd" d="M9.53877 8.27877C10.1442 7.423 10.5 6.37805 10.5 5.25C10.5 2.35051 8.1495 0 5.25 0C2.35051 0 0 2.35051 0 5.25C0 8.1495 2.35051 10.5 5.25 10.5C6.37805 10.5 7.423 10.1442 8.27877 9.53877L12.74 14L14 12.74L9.53877 8.27877ZM5.25 9.1875C7.42462 9.1875 9.1875 7.42462 9.1875 5.25C9.1875 3.07538 7.42462 1.3125 5.25 1.3125C3.07538 1.3125 1.3125 3.07538 1.3125 5.25C1.3125 7.42462 3.07538 9.1875 5.25 9.1875Z" fill="#545454"/>
</svg>
